<svg width="20" height="16" viewBox="0 0 20 16" fill="none" xmlns="http://www.w3.org/2000/svg">
<path d="M18.75 0.25H1.25C0.911458 0.25 0.611979 0.380208 0.351562 0.640625C0.117188 0.875 0 1.16146 0 1.5V14C0 14.3385 0.117188 14.625 0.351562 14.8594C0.611979 15.1198 0.911458 15.25 1.25 15.25H18.75C19.0885 15.25 19.375 15.1198 19.6094 14.8594C19.8698 14.625 20 14.3385 20 14V1.5C20 1.16146 19.8698 0.875 19.6094 0.640625C19.375 0.380208 19.0885 0.25 18.75 0.25ZM7.10938 9.03906L10 10.9922L12.8906 9.03906L17.8516 14H2.14844L7.10938 9.03906ZM1.25 13.1016V5.05469L6.05469 8.33594L1.25 13.1016ZM13.9453 8.29688L18.75 4.97656V13.1016L13.9453 8.29688ZM18.75 1.5V3.53125L18.7109 3.49219L10 9.50781L1.25 3.53125V1.5H18.75Z" fill="black"/>
</svg>
