<svg width="95" height="15" viewBox="0 0 95 15" fill="none" xmlns="http://www.w3.org/2000/svg">
<path d="M7.34668 0.243303V2.45312H6.03251C5.5526 2.45312 5.22893 2.55357 5.06152 2.75446C4.89411 2.95536 4.81041 3.2567 4.81041 3.65848V5.24051H7.26298L6.93652 7.71819H4.81041V14.0714H2.24902V7.71819H0.114537V5.24051H2.24902V3.41574C2.24902 2.37779 2.5392 1.57422 3.11956 1.00502C3.69992 0.430245 4.4728 0.142856 5.4382 0.142856C6.25851 0.142856 6.89467 0.176338 7.34668 0.243303ZM36.4489 3.55804C36.0751 4.10491 35.623 4.57087 35.0929 4.95591C35.0985 5.03404 35.1013 5.15123 35.1013 5.30748C35.1013 6.03292 34.9953 6.75837 34.7832 7.48382C34.5712 8.20368 34.2475 8.89565 33.8122 9.55971C33.3825 10.2238 32.8691 10.8125 32.272 11.3259C31.6749 11.8337 30.9551 12.2411 30.1124 12.548C29.2698 12.8493 28.3686 13 27.4088 13C25.8965 13 24.5126 12.5954 23.257 11.7863C23.4523 11.8086 23.6699 11.8198 23.9099 11.8198C25.1655 11.8198 26.2843 11.4347 27.2665 10.6646C26.6805 10.6535 26.156 10.4749 25.6928 10.1289C25.2296 9.77734 24.9116 9.33091 24.7386 8.78962C24.9227 8.81752 25.0929 8.83147 25.2492 8.83147C25.4891 8.83147 25.7263 8.80078 25.9607 8.7394C25.3357 8.61105 24.8167 8.30134 24.4037 7.81027C23.9964 7.31362 23.7927 6.73884 23.7927 6.08594V6.05246C24.1722 6.26451 24.5795 6.37891 25.0148 6.39565C24.6465 6.15011 24.3535 5.82924 24.1359 5.43304C23.9182 5.03683 23.8094 4.60714 23.8094 4.14397C23.8094 3.6529 23.9322 3.1981 24.1777 2.77958C24.853 3.61105 25.6733 4.2779 26.6387 4.78013C27.6097 5.27679 28.6476 5.55301 29.7525 5.60882C29.7079 5.39676 29.6855 5.19029 29.6855 4.9894C29.6855 4.24163 29.9478 3.60547 30.4724 3.08091C31.0025 2.55078 31.6415 2.28571 32.3892 2.28571C33.1705 2.28571 33.829 2.57031 34.3647 3.13951C34.9729 3.02232 35.5449 2.80469 36.0806 2.48661C35.8742 3.12835 35.478 3.625 34.892 3.97656C35.411 3.92076 35.93 3.78125 36.4489 3.55804ZM59.763 9.15792C60.1815 8.7394 60.3908 8.23437 60.3908 7.64286C60.3908 7.05134 60.1815 6.54632 59.763 6.12779C59.3444 5.70926 58.8394 5.5 58.2479 5.5C57.6564 5.5 57.1514 5.70926 56.7328 6.12779C56.3143 6.54632 56.1051 7.05134 56.1051 7.64286C56.1051 8.23437 56.3143 8.7394 56.7328 9.15792C57.1514 9.57645 57.6564 9.78571 58.2479 9.78571C58.8394 9.78571 59.3444 9.57645 59.763 9.15792ZM60.5833 5.30748C61.225 5.94922 61.5459 6.72768 61.5459 7.64286C61.5459 8.55804 61.225 9.3365 60.5833 9.97824C59.9415 10.62 59.1631 10.9408 58.2479 10.9408C57.3327 10.9408 56.5543 10.62 55.9125 9.97824C55.2708 9.3365 54.9499 8.55804 54.9499 7.64286C54.9499 6.72768 55.2708 5.94922 55.9125 5.30748C56.5543 4.66574 57.3327 4.34487 58.2479 4.34487C59.1631 4.34487 59.9415 4.66574 60.5833 5.30748ZM62.2239 3.66685C62.3746 3.81752 62.4499 3.99888 62.4499 4.21094C62.4499 4.42299 62.3746 4.60435 62.2239 4.75502C62.0732 4.90569 61.8919 4.98103 61.6798 4.98103C61.4678 4.98103 61.2864 4.90569 61.1357 4.75502C60.9851 4.60435 60.9097 4.42299 60.9097 4.21094C60.9097 3.99888 60.9851 3.81752 61.1357 3.66685C61.2864 3.51618 61.4678 3.44085 61.6798 3.44085C61.8919 3.44085 62.0732 3.51618 62.2239 3.66685ZM58.8841 2.36942C58.499 2.36942 58.287 2.36942 58.2479 2.36942C58.2088 2.36942 57.994 2.36942 57.6034 2.36942C57.2183 2.36384 56.9254 2.36384 56.7245 2.36942C56.5236 2.36942 56.2529 2.37779 55.9125 2.39453C55.5777 2.40569 55.2903 2.43359 55.0504 2.47824C54.816 2.5173 54.6179 2.56752 54.4561 2.62891C54.177 2.74051 53.9315 2.90234 53.7194 3.1144C53.5074 3.32645 53.3456 3.57199 53.234 3.851C53.1726 4.01283 53.1196 4.21373 53.0749 4.45368C53.0359 4.68806 53.008 4.97545 52.9912 5.31585C52.9801 5.65067 52.9717 5.91853 52.9661 6.11942C52.9661 6.32031 52.9661 6.61607 52.9661 7.0067C52.9717 7.39174 52.9745 7.60379 52.9745 7.64286C52.9745 7.68192 52.9717 7.89676 52.9661 8.28739C52.9661 8.67243 52.9661 8.9654 52.9661 9.16629C52.9717 9.36719 52.9801 9.63783 52.9912 9.97824C53.008 10.3131 53.0359 10.6004 53.0749 10.8404C53.1196 11.0748 53.1726 11.2729 53.234 11.4347C53.3456 11.7137 53.5074 11.9593 53.7194 12.1713C53.9315 12.3834 54.177 12.5452 54.4561 12.6568C54.6179 12.7182 54.816 12.7712 55.0504 12.8158C55.2903 12.8549 55.5777 12.8828 55.9125 12.8996C56.2529 12.9107 56.5236 12.9191 56.7245 12.9247C56.9254 12.9247 57.2183 12.9247 57.6034 12.9247C57.994 12.9191 58.2088 12.9163 58.2479 12.9163C58.287 12.9163 58.499 12.9191 58.8841 12.9247C59.2747 12.9247 59.5705 12.9247 59.7713 12.9247C59.9722 12.9191 60.2401 12.9107 60.5749 12.8996C60.9153 12.8828 61.2027 12.8549 61.4371 12.8158C61.677 12.7712 61.8779 12.7182 62.0398 12.6568C62.3188 12.5452 62.5643 12.3834 62.7764 12.1713C62.9884 11.9593 63.1503 11.7137 63.2619 11.4347C63.3232 11.2729 63.3735 11.0748 63.4125 10.8404C63.4572 10.6004 63.4851 10.3131 63.4962 9.97824C63.513 9.63783 63.5213 9.36719 63.5213 9.16629C63.5269 8.9654 63.5269 8.67243 63.5213 8.28739C63.5213 7.89676 63.5213 7.68192 63.5213 7.64286C63.5213 7.60379 63.5213 7.39174 63.5213 7.0067C63.5269 6.61607 63.5269 6.32031 63.5213 6.11942C63.5213 5.91853 63.513 5.65067 63.4962 5.31585C63.4851 4.97545 63.4572 4.68806 63.4125 4.45368C63.3735 4.21373 63.3232 4.01283 63.2619 3.851C63.1503 3.57199 62.9884 3.32645 62.7764 3.1144C62.5643 2.90234 62.3188 2.74051 62.0398 2.62891C61.8779 2.56752 61.677 2.5173 61.4371 2.47824C61.2027 2.43359 60.9153 2.40569 60.5749 2.39453C60.2401 2.37779 59.9722 2.36942 59.7713 2.36942C59.5705 2.36384 59.2747 2.36384 58.8841 2.36942ZM64.6346 4.9894C64.6625 5.48047 64.6765 6.36496 64.6765 7.64286C64.6765 8.92076 64.6625 9.80525 64.6346 10.2963C64.5788 11.457 64.2328 12.3555 63.5967 12.9916C62.9605 13.6278 62.0621 13.9738 60.9014 14.0296C60.4103 14.0575 59.5258 14.0714 58.2479 14.0714C56.97 14.0714 56.0855 14.0575 55.5944 14.0296C54.4337 13.9738 53.5353 13.6278 52.8991 12.9916C52.263 12.3555 51.917 11.457 51.8612 10.2963C51.8333 9.80525 51.8193 8.92076 51.8193 7.64286C51.8193 6.36496 51.8333 5.48047 51.8612 4.9894C51.917 3.82868 52.263 2.93025 52.8991 2.29408C53.5353 1.65792 54.4337 1.31194 55.5944 1.25614C56.0855 1.22824 56.97 1.21429 58.2479 1.21429C59.5258 1.21429 60.4103 1.22824 60.9014 1.25614C62.0621 1.31194 62.9605 1.65792 63.5967 2.29408C64.2328 2.93025 64.5788 3.82868 64.6346 4.9894ZM85.6321 9.58482L89.6835 7.49219L85.6321 5.37444V9.58482ZM87.1807 2.36942C88.1182 2.36942 89.0222 2.38337 89.8927 2.41127C90.7688 2.43359 91.4106 2.4587 91.8179 2.48661L92.429 2.52009C92.4346 2.52009 92.482 2.52567 92.5713 2.53683C92.6606 2.54241 92.7247 2.55078 92.7638 2.56194C92.8029 2.56752 92.867 2.57868 92.9563 2.59542C93.0512 2.61216 93.1321 2.63449 93.1991 2.66239C93.266 2.69029 93.3442 2.72656 93.4335 2.7712C93.5227 2.81585 93.6092 2.87165 93.6929 2.93862C93.7766 3 93.8576 3.07254 93.9357 3.15625C93.9692 3.18973 94.011 3.24274 94.0612 3.31529C94.117 3.38225 94.198 3.54408 94.304 3.80078C94.4156 4.05748 94.4909 4.33929 94.53 4.6462C94.5746 5.00335 94.6081 5.3856 94.6304 5.79297C94.6583 6.19475 94.6751 6.51004 94.6807 6.73884V7.07366V8.21205C94.6862 9.02121 94.636 9.83036 94.53 10.6395C94.4909 10.9464 94.4212 11.2254 94.3207 11.4766C94.2203 11.7221 94.131 11.8923 94.0529 11.9872L93.9357 12.1295C93.8576 12.2132 93.7766 12.2885 93.6929 12.3555C93.6092 12.4169 93.5227 12.4699 93.4335 12.5145C93.3442 12.5536 93.266 12.5871 93.1991 12.615C93.1321 12.6429 93.0512 12.6652 92.9563 12.6819C92.867 12.6987 92.8001 12.7126 92.7554 12.7238C92.7164 12.7294 92.6522 12.7377 92.5629 12.7489C92.4792 12.7545 92.4346 12.7573 92.429 12.7573C91.0283 12.8633 89.2789 12.9163 87.1807 12.9163C86.0255 12.9051 85.0211 12.8884 84.1673 12.8661C83.3191 12.8382 82.761 12.8158 82.4932 12.7991L82.083 12.7656L81.7817 12.7321C81.5808 12.7042 81.4273 12.6763 81.3213 12.6484C81.2208 12.6205 81.0785 12.5619 80.8944 12.4727C80.7158 12.3834 80.5596 12.269 80.4256 12.1295C80.3922 12.096 80.3475 12.0458 80.2917 11.9788C80.2415 11.9062 80.1606 11.7416 80.049 11.4849C79.9429 11.2282 79.8704 10.9464 79.8313 10.6395C79.7867 10.2824 79.7504 9.9029 79.7225 9.50112C79.7002 9.09375 79.6862 8.77567 79.6807 8.54688V8.21205V7.07366C79.6751 6.26451 79.7253 5.45536 79.8313 4.6462C79.8704 4.33929 79.9402 4.06306 80.0406 3.81752C80.141 3.56641 80.2303 3.39341 80.3085 3.29855L80.4256 3.15625C80.5038 3.07254 80.5847 3 80.6684 2.93862C80.7521 2.87165 80.8386 2.81585 80.9279 2.7712C81.0172 2.72656 81.0953 2.69029 81.1622 2.66239C81.2292 2.63449 81.3073 2.61216 81.3966 2.59542C81.4915 2.57868 81.5585 2.56752 81.5975 2.56194C81.6366 2.55078 81.7008 2.54241 81.79 2.53683C81.8793 2.52567 81.9268 2.52009 81.9323 2.52009C83.333 2.41964 85.0825 2.36942 87.1807 2.36942Z" fill="#1A1114"/>
</svg>
